<?xml version="1.0" encoding="utf-8"?>
<!-- Generator: Adobe Illustrator 16.0.0, SVG Export Plug-In . SVG Version: 6.00 Build 0)  -->
<!DOCTYPE svg PUBLIC "-//W3C//DTD SVG 1.1//EN" "http://www.w3.org/Graphics/SVG/1.1/DTD/svg11.dtd">
<svg version="1.1" id="Layer_1" xmlns="http://www.w3.org/2000/svg" xmlns:xlink="http://www.w3.org/1999/xlink" x="0px" y="0px"
	 width="340.261px" height="94.82px" viewBox="0 0 340.261 94.82" enable-background="new 0 0 340.261 94.82" xml:space="preserve">
<g>
	<g>
		<g>
			<g>
				<path id="SVGID_1_" fill="#FFFFFF" d="M115.901,39.039c0.05,0.207,0.134,0.377,0.248,0.508c0.113,0.133,0.229,0.199,0.344,0.199
					c0.114,0,0.212-0.07,0.296-0.209c0.081-0.138,0.123-0.367,0.123-0.687V18.627h-4.291v-7.062h13.824v25.771
					c0,1.26-0.125,2.381-0.383,3.363c-0.252,0.983-0.61,1.842-1.067,2.573c-0.457,0.734-1.005,1.357-1.64,1.869
					c-0.634,0.512-1.337,0.931-2.105,1.246c-0.77,0.318-1.593,0.547-2.47,0.687c-0.877,0.137-1.788,0.207-2.726,0.207
					c-1.246,0-2.374-0.158-3.386-0.479c-1.012-0.316-1.906-0.773-2.687-1.369c-0.785-0.594-1.454-1.317-2.015-2.17
					c-0.558-0.852-1.017-1.811-1.373-2.875l-5.224-15.637h9.839L115.901,39.039z M16.321,18.877c-1.029-0.017-1.904,0.1-2.62,0.342
					c-0.719,0.242-1.311,0.551-1.773,0.922c-0.465,0.375-0.83,0.783-1.097,1.229c-0.267,0.438-0.471,0.856-0.61,1.244
					c0.33,0.319,0.621,0.653,0.867,1.008c0.248,0.352,0.451,0.735,0.61,1.151c0.159,0.414,0.278,0.879,0.361,1.392
					c0.084,0.512,0.126,1.088,0.126,1.725v18.54H2.728V27.639c0-0.387-0.041-0.785-0.115-1.193
					c-0.078-0.407-0.216-0.813-0.419-1.217c-0.206-0.399-0.486-0.795-0.838-1.184C0.998,23.66,0.546,23.299,0,22.967
					C0.229,21.984,0.562,21,1.001,20.018c0.438-0.981,0.991-1.924,1.659-2.824c0.667-0.897,1.45-1.735,2.345-2.512
					c0.896-0.774,1.908-1.449,3.043-2.024c1.13-0.574,2.386-1.027,3.764-1.359c1.379-0.332,2.882-0.498,4.509-0.498
					c1.921,0,3.649,0.18,5.188,0.539c1.538,0.361,2.898,0.861,4.081,1.506c1.18,0.646,2.195,1.408,3.038,2.295
					c0.848,0.887,1.538,1.861,2.072,2.928c0.534,1.066,0.928,2.201,1.182,3.404c0.255,1.207,0.381,2.438,0.381,3.697V46.43h-9.61
					V25.854c0-0.541-0.034-1.088-0.104-1.641c-0.07-0.553-0.191-1.09-0.362-1.609c-0.171-0.519-0.409-1.004-0.707-1.454
					c-0.299-0.448-0.682-0.846-1.153-1.184c-0.473-0.338-1.037-0.605-1.697-0.801C17.969,18.973,17.199,18.877,16.321,18.877z
					 M33.969,23.797c0-2.188,0.35-4.094,1.05-5.721c0.698-1.627,1.624-2.979,2.773-4.06c1.151-1.08,2.465-1.887,3.948-2.42
					c1.482-0.531,3.004-0.799,4.567-0.799c1.132,0,2.232,0.107,3.309,0.322c1.073,0.215,2.083,0.539,3.031,0.975
					c0.952,0.438,1.822,0.982,2.615,1.641c0.794,0.658,1.48,1.435,2.05,2.326c0.572,0.894,1.016,1.906,1.336,3.043
					c0.316,1.133,0.476,2.388,0.476,3.758V46.43h-9.537V23.984c0-1.746-0.273-2.989-0.819-3.735
					c-0.548-0.75-1.368-1.123-2.461-1.123c-0.941,0-1.707,0.367-2.3,1.1c-0.589,0.736-0.942,1.926-1.056,3.572H33.969z
					 M70.193,33.494c0.063,0.955,0.208,1.776,0.438,2.471c0.229,0.693,0.553,1.26,0.973,1.703c0.419,0.442,0.942,0.768,1.563,0.977
					c0.622,0.207,1.355,0.31,2.194,0.31c0.394,0,0.785-0.047,1.174-0.146c0.387-0.096,0.734-0.25,1.049-0.465
					c0.309-0.215,0.563-0.492,0.761-0.832c0.197-0.34,0.296-0.75,0.296-1.234c0-0.498-0.078-0.936-0.239-1.309
					c-0.157-0.375-0.432-0.732-0.817-1.08c-0.39-0.346-0.917-0.688-1.585-1.027c-0.666-0.34-1.51-0.725-2.526-1.151
					c-1.028-0.416-2.034-0.834-3.014-1.256c-0.979-0.422-1.903-0.867-2.772-1.33c-0.872-0.465-1.675-0.963-2.412-1.494
					c-0.739-0.533-1.373-1.133-1.898-1.797c-0.528-0.664-0.942-1.398-1.241-2.201c-0.297-0.803-0.447-1.709-0.447-2.719
					c0-1.234,0.173-2.338,0.524-3.314c0.35-0.975,0.829-1.832,1.44-2.574c0.609-0.739,1.319-1.373,2.127-1.897
					c0.807-0.525,1.666-0.955,2.583-1.289c0.916-0.332,1.855-0.572,2.822-0.726c0.968-0.151,1.911-0.229,2.841-0.229
					c1.195,0,2.352,0.09,3.469,0.27c1.12,0.181,2.173,0.472,3.155,0.871c0.986,0.402,1.888,0.929,2.709,1.578
					c0.819,0.65,1.53,1.449,2.134,2.398c0.603,0.947,1.085,2.061,1.439,3.332c0.357,1.272,0.562,2.733,0.611,4.381H78.24
					c0-0.885-0.094-1.639-0.285-2.264c-0.192-0.621-0.461-1.121-0.812-1.505c-0.351-0.381-0.765-0.657-1.248-0.829
					c-0.484-0.175-1.017-0.261-1.602-0.261c-0.865,0-1.555,0.189-2.069,0.57c-0.516,0.381-0.772,0.883-0.772,1.506
					c0,0.387,0.065,0.736,0.201,1.049c0.134,0.312,0.384,0.617,0.751,0.914c0.37,0.297,0.885,0.609,1.546,0.935
					c0.661,0.325,1.519,0.688,2.573,1.09c2.186,0.858,4.028,1.711,5.519,2.555c1.496,0.844,2.701,1.721,3.625,2.625
					c0.922,0.908,1.583,1.863,1.982,2.867c0.4,1.002,0.602,2.086,0.602,3.25c0,1.344-0.168,2.547-0.506,3.613
					c-0.337,1.065-0.812,2.004-1.419,2.813c-0.611,0.81-1.336,1.5-2.174,2.066c-0.841,0.567-1.764,1.026-2.776,1.381
					c-1.008,0.354-2.085,0.613-3.22,0.779c-1.138,0.166-2.306,0.25-3.5,0.25c-1.778,0-3.487-0.254-5.119-0.761
					c-1.635-0.506-3.09-1.301-4.368-2.389c-1.277-1.086-2.317-2.492-3.117-4.213c-0.801-1.725-1.259-3.812-1.374-6.262H70.193z
					 M90.513,46.43V11.566h9.608V46.43H90.513z M100.806,7.477L103.933,0h22.806v7.477H100.806z M149.234,46.43v-3.156
					c-1.181,1.205-2.487,2.16-3.909,2.867c-1.424,0.705-2.904,1.06-4.444,1.06c-2.324,0-4.278-0.302-5.862-0.904
					c-1.582-0.603-2.86-1.465-3.832-2.586c-0.974-1.121-1.668-2.474-2.087-4.06c-0.42-1.584-0.63-3.354-0.63-5.307V11.566h9.44
					v21.347c0,0.873,0.126,1.657,0.379,2.356c0.254,0.699,0.608,1.297,1.058,1.797c0.451,0.498,0.994,0.877,1.632,1.142
					c0.633,0.262,1.334,0.396,2.096,0.396c1.233,0,2.231-0.231,2.995-0.696c0.762-0.464,1.356-1.101,1.782-1.91
					c0.425-0.812,0.711-1.756,0.859-2.847c0.146-1.086,0.218-2.243,0.218-3.477V11.566h9.536V46.43H149.234z M171.095,28.988v6.041
					c0,0.707,0.127,1.308,0.375,1.798c0.246,0.491,0.584,0.896,1.01,1.215c0.426,0.318,0.922,0.551,1.486,0.696
					c0.566,0.144,1.174,0.216,1.82,0.216c0.586,0,1.164-0.043,1.735-0.134c0.571-0.09,1.08-0.25,1.524-0.477
					c0.445-0.229,0.808-0.541,1.088-0.936c0.277-0.396,0.418-0.902,0.418-1.525c0-0.373-0.006-0.738-0.02-1.092
					c-0.012-0.353-0.072-0.697-0.18-1.037s-0.295-0.674-0.555-0.996c-0.26-0.326-0.639-0.652-1.135-0.977
					c-0.494-0.324-1.136-0.654-1.914-0.986c-0.783-0.332-1.75-0.678-2.908-1.039c-1.068-0.303-2.119-0.615-3.156-0.935
					c-1.035-0.317-2.016-0.672-2.938-1.059c-0.92-0.389-1.775-0.824-2.564-1.309c-0.787-0.484-1.463-1.041-2.029-1.672
					c-0.568-0.63-1.012-1.347-1.334-2.148c-0.324-0.803-0.486-1.717-0.486-2.74c0-1.178,0.197-2.215,0.59-3.115
					c0.393-0.899,0.926-1.686,1.594-2.356c0.666-0.672,1.445-1.232,2.334-1.682c0.891-0.449,1.834-0.813,2.834-1.091
					c0.994-0.276,2.017-0.475,3.06-0.594c1.043-0.117,2.053-0.174,3.03-0.174c1.285,0,2.533,0.096,3.746,0.289
					c1.215,0.195,2.358,0.5,3.435,0.914c1.074,0.414,2.055,0.953,2.944,1.608c0.89,0.658,1.654,1.453,2.3,2.39
					c0.643,0.934,1.139,2.014,1.495,3.237c0.354,1.228,0.535,2.605,0.535,4.144h-9.229c-0.025-0.873-0.168-1.615-0.428-2.232
					c-0.263-0.614-0.609-1.119-1.052-1.516c-0.438-0.396-0.944-0.695-1.522-0.904c-0.58-0.207-1.191-0.33-1.84-0.371
					c-0.55-0.043-1.064-0.045-1.556-0.012c-0.489,0.035-0.924,0.111-1.299,0.229c-0.373,0.116-0.67,0.278-0.886,0.485
					c-0.217,0.209-0.325,0.459-0.325,0.75c0,0.263,0.116,0.517,0.344,0.756c0.229,0.244,0.522,0.479,0.877,0.707
					c0.356,0.229,0.765,0.445,1.222,0.654c0.459,0.207,0.916,0.398,1.375,0.57c0.457,0.174,0.893,0.33,1.305,0.465
					c0.414,0.141,0.768,0.252,1.057,0.334c1.363,0.416,2.631,0.822,3.807,1.215c1.176,0.396,2.244,0.83,3.201,1.312
					c0.961,0.477,1.813,1.01,2.557,1.596c0.746,0.592,1.367,1.279,1.867,2.067c0.504,0.789,0.887,1.697,1.146,2.73
					c0.26,1.029,0.391,2.225,0.391,3.582c0,1.342-0.195,2.553-0.582,3.635c-0.389,1.078-0.924,2.033-1.602,2.863
					c-0.68,0.832-1.482,1.545-2.402,2.139c-0.922,0.597-1.92,1.088-2.996,1.476c-1.072,0.389-2.193,0.672-3.365,0.852
					c-1.168,0.18-2.336,0.271-3.508,0.271c-1.192,0-2.375-0.084-3.547-0.25c-1.17-0.166-2.277-0.427-3.324-0.779
					c-1.051-0.354-2.021-0.812-2.92-1.371c-0.895-0.559-1.672-1.242-2.326-2.045c-0.654-0.803-1.166-1.729-1.535-2.783
					c-0.369-1.051-0.551-2.242-0.551-3.57v-7.33H171.095z M213.896,46.43v-3.156c-1.184,1.205-2.484,2.16-3.908,2.867
					c-1.426,0.705-2.904,1.06-4.443,1.06c-2.326,0-4.278-0.302-5.864-0.904c-1.58-0.603-2.859-1.465-3.83-2.586
					c-0.974-1.121-1.67-2.474-2.088-4.06c-0.421-1.584-0.632-3.354-0.632-5.307V11.566h9.441v21.347
					c0,0.873,0.123,1.657,0.381,2.356c0.252,0.699,0.605,1.297,1.057,1.797c0.451,0.498,0.994,0.877,1.632,1.142
					c0.637,0.262,1.334,0.396,2.096,0.396c1.231,0,2.229-0.231,2.994-0.696c0.765-0.464,1.358-1.101,1.783-1.91
					c0.428-0.812,0.711-1.756,0.858-2.847c0.146-1.086,0.217-2.243,0.217-3.477V11.566h9.535V46.43H213.896z M224.833,23.797
					c0-2.188,0.348-4.094,1.047-5.721s1.623-2.979,2.774-4.06c1.147-1.08,2.468-1.887,3.947-2.42
					c1.479-0.531,3.004-0.799,4.563-0.799c1.133,0,2.236,0.107,3.31,0.322s2.086,0.539,3.032,0.975
					c0.947,0.438,1.816,0.982,2.613,1.641c0.793,0.658,1.476,1.435,2.049,2.326c0.572,0.894,1.017,1.906,1.336,3.043
					c0.316,1.133,0.476,2.388,0.476,3.758V46.43h-9.532V23.984c0-1.746-0.273-2.989-0.82-3.735c-0.547-0.75-1.367-1.123-2.461-1.123
					c-0.939,0-1.705,0.367-2.297,1.1c-0.591,0.736-0.941,1.926-1.06,3.572H224.833z M262.615,46.43h-9.439V25.418
					c0-1.275,0.119-2.521,0.363-3.738c0.24-1.219,0.619-2.369,1.135-3.447c0.513-1.08,1.185-2.075,2.005-2.989
					c0.817-0.914,1.807-1.699,2.963-2.357c1.153-0.656,2.487-1.17,4-1.537c1.515-0.365,3.229-0.549,5.147-0.549
					c1.894,0,3.597,0.184,5.103,0.549c1.508,0.367,2.83,0.881,3.976,1.537c1.145,0.658,2.12,1.443,2.928,2.357
					c0.807,0.914,1.469,1.909,1.981,2.989c0.517,1.078,0.892,2.229,1.125,3.447c0.236,1.219,0.353,2.463,0.353,3.738V46.43h-9.531
					V25.168c0-0.803-0.084-1.57-0.25-2.306c-0.164-0.733-0.465-1.377-0.906-1.932c-0.436-0.553-1.041-0.994-1.811-1.318
					c-0.769-0.325-1.756-0.487-2.965-0.487c-1.207,0-2.209,0.162-3.004,0.487c-0.795,0.324-1.427,0.767-1.896,1.318
					c-0.472,0.555-0.804,1.197-0.994,1.932c-0.188,0.734-0.282,1.503-0.282,2.306v2.471c1.09-1.024,2.323-1.797,3.694-2.313
					c1.377-0.521,2.981-0.802,4.826-0.843v7.496c-1.666,0.07-3.046,0.34-4.138,0.81c-1.094,0.471-1.967,1.129-2.615,1.973
					c-0.645,0.844-1.104,1.855-1.37,3.031c-0.267,1.178-0.397,2.5-0.397,3.969V46.43L262.615,46.43z M285.979,23.797
					c0-2.188,0.353-4.094,1.049-5.721c0.699-1.627,1.625-2.979,2.775-4.06c1.149-1.08,2.467-1.887,3.946-2.42
					c1.482-0.531,3.004-0.799,4.564-0.799c1.133,0,2.236,0.107,3.309,0.322c1.074,0.215,2.088,0.539,3.033,0.975
					c0.947,0.438,1.818,0.982,2.611,1.641c0.795,0.658,1.479,1.435,2.051,2.326c0.572,0.893,1.018,1.906,1.334,3.043
					c0.318,1.133,0.479,2.388,0.479,3.758V46.43h-9.534V23.984c0-1.746-0.273-2.989-0.82-3.735c-0.547-0.75-1.366-1.123-2.461-1.123
					c-0.938,0-1.703,0.367-2.297,1.1c-0.591,0.736-0.938,1.926-1.058,3.572H285.979z M322.201,33.494
					c0.063,0.955,0.211,1.776,0.44,2.471c0.228,0.693,0.553,1.26,0.974,1.703c0.415,0.442,0.938,0.768,1.563,0.977
					c0.623,0.207,1.352,0.31,2.191,0.31c0.393,0,0.784-0.047,1.172-0.146c0.389-0.096,0.735-0.25,1.051-0.465
					c0.313-0.215,0.563-0.492,0.764-0.832c0.195-0.34,0.293-0.75,0.293-1.234c0-0.498-0.078-0.936-0.236-1.309
					c-0.16-0.375-0.432-0.732-0.82-1.08c-0.389-0.346-0.916-0.688-1.584-1.027c-0.668-0.34-1.508-0.725-2.524-1.151
					c-1.028-0.416-2.034-0.834-3.012-1.256c-0.979-0.422-1.904-0.867-2.775-1.33c-0.87-0.465-1.676-0.963-2.411-1.494
					c-0.738-0.533-1.369-1.133-1.896-1.797c-0.529-0.664-0.941-1.398-1.24-2.201c-0.297-0.803-0.449-1.709-0.449-2.719
					c0-1.234,0.176-2.338,0.523-3.314c0.352-0.975,0.832-1.832,1.439-2.574c0.612-0.739,1.317-1.373,2.129-1.897
					c0.805-0.525,1.668-0.955,2.582-1.289c0.916-0.332,1.854-0.572,2.824-0.726c0.965-0.151,1.911-0.229,2.84-0.229
					c1.194,0,2.35,0.09,3.471,0.27c1.117,0.181,2.17,0.472,3.154,0.871c0.985,0.402,1.889,0.929,2.709,1.578
					c0.819,0.65,1.535,1.449,2.139,2.398c0.6,0.947,1.08,2.061,1.438,3.332c0.357,1.272,0.561,2.733,0.609,4.381h-9.307
					c0-0.885-0.094-1.639-0.285-2.264c-0.188-0.621-0.459-1.121-0.809-1.505c-0.353-0.381-0.771-0.657-1.25-0.829
					c-0.484-0.175-1.017-0.261-1.603-0.261c-0.865,0-1.556,0.189-2.068,0.57c-0.516,0.381-0.774,0.883-0.774,1.506
					c0,0.387,0.065,0.736,0.203,1.049c0.133,0.312,0.383,0.617,0.754,0.914c0.367,0.297,0.881,0.609,1.545,0.935
					c0.658,0.325,1.518,0.688,2.572,1.09c2.186,0.858,4.026,1.711,5.52,2.555c1.496,0.844,2.703,1.721,3.625,2.625
					c0.922,0.908,1.582,1.863,1.984,2.867c0.397,1.002,0.6,2.086,0.6,3.25c0,1.344-0.168,2.547-0.506,3.613
					c-0.338,1.065-0.811,2.004-1.422,2.813c-0.609,0.81-1.334,1.5-2.176,2.066c-0.836,0.567-1.765,1.026-2.773,1.381
					c-1.01,0.354-2.084,0.613-3.221,0.779c-1.14,0.166-2.306,0.25-3.502,0.25c-1.779,0-3.484-0.254-5.119-0.761
					c-1.633-0.506-3.088-1.301-4.363-2.389c-1.279-1.086-2.318-2.492-3.117-4.213c-0.803-1.725-1.26-3.812-1.375-6.262H322.201z"/>
			</g>
		</g>
	</g>
</g>
<g>
	<path fill="#FFFFFF" d="M49.856,65.498l4.386,10.133l4.402-10.133l2.449,12.758h-1.376l-1.553-8.164h-0.032l-3.89,8.66l-3.874-8.66
		h-0.032l-1.552,8.164h-1.377L49.856,65.498z"/>
	<path fill="#FFFFFF" d="M64.672,74.51c0-2.209,1.745-3.986,3.954-3.986c2.208,0,3.954,1.777,3.954,3.986s-1.761,3.953-3.954,3.953
		S64.672,76.719,64.672,74.51z M65.952,74.494c0,1.537,1.088,2.784,2.673,2.784c1.584,0,2.673-1.247,2.673-2.784
		c0-1.521-1.088-2.785-2.673-2.785C67.041,71.709,65.952,72.973,65.952,74.494z"/>
	<path fill="#FFFFFF" d="M78.336,71.645h0.032c0.528-0.721,1.217-1.121,2.145-1.121c2.081,0,2.561,1.506,2.561,3.267v4.467h-1.28
		v-4.242c0-1.217-0.096-2.305-1.585-2.305c-1.761,0-1.873,1.633-1.873,2.977v3.57h-1.281v-7.523h1.281V71.645z"/>
	<path fill="#FFFFFF" d="M88.864,74.766c0.016,1.394,1.008,2.514,2.465,2.514c1.088,0,1.792-0.655,2.289-1.553l1.088,0.625
		c-0.72,1.344-1.937,2.111-3.474,2.111c-2.241,0-3.681-1.713-3.681-3.873c0-2.225,1.296-4.066,3.649-4.066
		c2.417,0,3.697,2.002,3.569,4.242H88.864z M93.426,73.678c-0.176-1.088-1.088-1.969-2.209-1.969c-1.104,0-2.128,0.881-2.289,1.969
		H93.426z"/>
	<path fill="#FFFFFF" d="M97.999,70.732h1.489l2.657,5.396l2.433-5.396h1.457L100.48,82.48h-1.457l2.433-4.93L97.999,70.732z"/>
</g>
<path fill="#FBAA29" d="M116.722,76.559c-1.073,0.961-2.353,1.904-3.858,1.904c-1.841,0-3.521-1.377-3.521-3.297
	c0-2.019,1.457-2.978,2.961-3.969l0.144-0.099c-0.544-0.752-1.201-1.567-1.201-2.561c0-1.521,1.137-2.562,2.641-2.562
	c1.361,0,2.561,0.961,2.561,2.369c0,1.439-1.088,2.225-2.129,3.01l2.545,3.248l1.36-1.584l0.977,0.802l-1.537,1.793l2.049,2.641
	h-1.697L116.722,76.559z M112.656,72.477c-0.912,0.625-2,1.361-2,2.594c0,1.138,0.992,2.177,2.128,2.177
	c1.217,0,2.273-0.943,3.138-1.695l-2.689-3.457L112.656,72.477z M113.665,70.301c0.688-0.529,1.505-0.992,1.505-1.953
	c0-0.736-0.608-1.231-1.313-1.231c-0.736,0-1.329,0.575-1.329,1.327c0,0.607,0.4,1.058,0.736,1.537l0.288,0.4L113.665,70.301z"/>
<g>
	<path fill="#FFFFFF" d="M123.775,66.186h1.985c2.193,0,4.034,0.801,4.034,3.267c0,0.977-0.368,1.809-1.185,2.354
		c1.441,0.353,2.289,1.648,2.289,3.09c0,2.4-1.937,3.361-4.322,3.361h-2.801V66.186L123.775,66.186z M125.12,71.5h0.512
		c1.521,0,2.817-0.176,2.817-2.049c0-1.824-1.153-2.017-2.801-2.017h-0.528V71.5z M125.12,77.008h1.345
		c1.504,0,3.089-0.369,3.089-2.209c0-1.873-1.792-2.146-3.265-2.146h-1.168L125.12,77.008L125.12,77.008z"/>
	<path fill="#FFFFFF" d="M142.45,78.256h-1.281v-1.041h-0.032c-0.656,0.832-1.537,1.248-2.593,1.248
		c-2.209,0-3.602-1.873-3.602-3.953c0-2.145,1.361-3.986,3.618-3.986c1.024,0,1.953,0.48,2.577,1.281h0.032v-1.072h1.281V78.256
		L142.45,78.256z M136.255,74.414c0,1.473,0.864,2.864,2.465,2.864c1.648,0,2.513-1.327,2.513-2.85c0-1.504-0.944-2.721-2.529-2.721
		C137.216,71.709,136.255,73.006,136.255,74.414z"/>
	<path fill="#FFFFFF" d="M148.815,71.645h0.032c0.528-0.721,1.217-1.121,2.145-1.121c2.081,0,2.561,1.506,2.561,3.267v4.467h-1.28
		v-4.242c0-1.217-0.096-2.305-1.585-2.305c-1.761,0-1.873,1.633-1.873,2.977v3.57h-1.281v-7.523h1.281V71.645z"/>
	<path fill="#FFFFFF" d="M159.92,73.518l2.737-2.785h1.713l-3.217,3.201l3.826,4.322h-1.697l-3.025-3.426l-0.336,0.336v3.09h-1.281
		V65.051h1.281L159.92,73.518L159.92,73.518z"/>
	<path fill="#FFFFFF" d="M170.736,67.898c0,0.515-0.416,0.914-0.913,0.914c-0.496,0-0.912-0.399-0.912-0.914
		c0-0.496,0.416-0.912,0.912-0.912C170.32,66.986,170.736,67.402,170.736,67.898z M170.464,78.256h-1.281v-7.523h1.281V78.256z"/>
	<path fill="#FFFFFF" d="M177.136,71.645h0.031c0.527-0.721,1.217-1.121,2.146-1.121c2.08,0,2.562,1.506,2.562,3.267v4.467h-1.281
		v-4.242c0-1.217-0.096-2.305-1.584-2.305c-1.762,0-1.872,1.633-1.872,2.977v3.57h-1.281v-7.523h1.281L177.136,71.645
		L177.136,71.645z"/>
	<path fill="#FFFFFF" d="M193.81,77.887c0,1.201,0,2.242-0.768,3.234c-0.705,0.896-1.793,1.328-2.914,1.328
		c-2.098,0-3.649-1.328-3.697-3.457h1.279c0.018,1.393,1.024,2.271,2.401,2.271c1.985,0,2.417-1.455,2.417-3.152v-0.896h-0.031
		c-0.608,0.785-1.602,1.248-2.608,1.248c-2.193,0-3.587-1.84-3.587-3.938c0-2.112,1.408-4.002,3.635-4.002
		c1.04,0,1.952,0.465,2.561,1.281h0.032v-1.072h1.28V77.887z M187.615,74.414c0,1.473,0.864,2.864,2.465,2.864
		c1.649,0,2.514-1.327,2.514-2.85c0-1.504-0.943-2.721-2.528-2.721C188.576,71.709,187.615,73.006,187.615,74.414z"/>
</g>
<g>
	<g>
		<path fill="#FFFFFF" d="M246.466,71.801h0.031c0.528-0.721,1.217-1.121,2.146-1.121c2.081,0,2.562,1.505,2.562,3.266v4.467h-1.281
			V74.17c0-1.216-0.096-2.305-1.584-2.305c-1.76,0-1.873,1.633-1.873,2.978v3.569h-1.279v-7.523h1.279V71.801L246.466,71.801z"/>
		<path fill="#FFFFFF" d="M257.602,78.411h-1.28V65.206h1.28V78.411z"/>
		<path fill="#FFFFFF" d="M264.498,68.055c0,0.513-0.416,0.913-0.912,0.913s-0.912-0.4-0.912-0.913c0-0.496,0.416-0.912,0.912-0.912
			S264.498,67.559,264.498,68.055z M264.226,78.411h-1.28v-7.523h1.28V78.411z"/>
		<path fill="#FFFFFF" d="M270.897,71.801h0.032c0.527-0.721,1.216-1.121,2.145-1.121c2.081,0,2.563,1.505,2.563,3.266v4.467h-1.281
			V74.17c0-1.216-0.096-2.305-1.584-2.305c-1.762,0-1.873,1.633-1.873,2.978v3.569h-1.279v-7.523h1.279L270.897,71.801
			L270.897,71.801z"/>
		<path fill="#FFFFFF" d="M281.425,74.922c0.017,1.393,1.009,2.513,2.465,2.513c1.089,0,1.793-0.656,2.289-1.553l1.089,0.625
			c-0.722,1.344-1.937,2.112-3.474,2.112c-2.242,0-3.683-1.713-3.683-3.873c0-2.227,1.298-4.066,3.649-4.066
			c2.416,0,3.697,2.001,3.568,4.242H281.425z M285.987,73.833c-0.177-1.088-1.089-1.969-2.209-1.969
			c-1.104,0-2.129,0.881-2.289,1.969H285.987z"/>
	</g>
</g>
<g>
	
		<linearGradient id="SVGID_2_" gradientUnits="userSpaceOnUse" x1="133.5889" y1="17.7805" x2="159.5534" y2="-32.9456" gradientTransform="matrix(1 0 0 -1 84 69.8208)">
		<stop  offset="0" style="stop-color:#60CAE7"/>
		<stop  offset="0.5176" style="stop-color:#FBE736"/>
		<stop  offset="1" style="stop-color:#F04D25"/>
	</linearGradient>
	<rect x="220.861" y="55.928" fill="url(#SVGID_2_)" width="0.674" height="6.33"/>
	
		<linearGradient id="SVGID_3_" gradientUnits="userSpaceOnUse" x1="131.7534" y1="16.8425" x2="157.7201" y2="-33.8879" gradientTransform="matrix(1 0 0 -1 84 69.8208)">
		<stop  offset="0" style="stop-color:#60CAE7"/>
		<stop  offset="0.5176" style="stop-color:#FBE736"/>
		<stop  offset="1" style="stop-color:#F04D25"/>
	</linearGradient>
	<polygon fill="url(#SVGID_3_)" points="219.701,62.258 219.031,62.352 218.15,56.087 218.82,55.99 	"/>
	
		<linearGradient id="SVGID_4_" gradientUnits="userSpaceOnUse" x1="129.8237" y1="15.8518" x2="155.7867" y2="-34.8715" gradientTransform="matrix(1 0 0 -1 84 69.8208)">
		<stop  offset="0" style="stop-color:#60CAE7"/>
		<stop  offset="0.5176" style="stop-color:#FBE736"/>
		<stop  offset="1" style="stop-color:#F04D25"/>
	</linearGradient>
	<polygon fill="url(#SVGID_4_)" points="217.89,62.516 217.238,62.704 215.494,56.619 216.143,56.433 	"/>
	
		<linearGradient id="SVGID_5_" gradientUnits="userSpaceOnUse" x1="127.8281" y1="14.8333" x2="153.7909" y2="-35.8896" gradientTransform="matrix(1 0 0 -1 84 69.8208)">
		<stop  offset="0" style="stop-color:#60CAE7"/>
		<stop  offset="0.5176" style="stop-color:#FBE736"/>
		<stop  offset="1" style="stop-color:#F04D25"/>
	</linearGradient>
	<polygon fill="url(#SVGID_5_)" points="216.128,63.021 215.509,63.298 212.934,57.518 213.554,57.243 	"/>
	
		<linearGradient id="SVGID_6_" gradientUnits="userSpaceOnUse" x1="125.8027" y1="13.7971" x2="151.7709" y2="-36.9364" gradientTransform="matrix(1 0 0 -1 84 69.8208)">
		<stop  offset="0" style="stop-color:#60CAE7"/>
		<stop  offset="0.5176" style="stop-color:#FBE736"/>
		<stop  offset="1" style="stop-color:#F04D25"/>
	</linearGradient>
	<polygon fill="url(#SVGID_6_)" points="214.453,63.769 213.875,64.128 210.524,58.766 211.1,58.403 	"/>
	
		<linearGradient id="SVGID_7_" gradientUnits="userSpaceOnUse" x1="123.7974" y1="12.7708" x2="149.7712" y2="-37.9737" gradientTransform="matrix(1 0 0 -1 84 69.8208)">
		<stop  offset="0" style="stop-color:#60CAE7"/>
		<stop  offset="0.5176" style="stop-color:#FBE736"/>
		<stop  offset="1" style="stop-color:#F04D25"/>
	</linearGradient>
	<polygon fill="url(#SVGID_7_)" points="212.899,64.743 212.38,65.179 208.313,60.331 208.83,59.895 	"/>
	
		<linearGradient id="SVGID_8_" gradientUnits="userSpaceOnUse" x1="121.8438" y1="11.7698" x2="147.8114" y2="-38.9625" gradientTransform="matrix(1 0 0 -1 84 69.8208)">
		<stop  offset="0" style="stop-color:#60CAE7"/>
		<stop  offset="0.5176" style="stop-color:#FBE736"/>
		<stop  offset="1" style="stop-color:#F04D25"/>
	</linearGradient>
	<polygon fill="url(#SVGID_8_)" points="211.496,65.919 211.042,66.427 206.337,62.193 206.792,61.686 	"/>
	
		<linearGradient id="SVGID_9_" gradientUnits="userSpaceOnUse" x1="119.981" y1="10.8157" x2="145.947" y2="-39.9133" gradientTransform="matrix(1 0 0 -1 84 69.8208)">
		<stop  offset="0" style="stop-color:#60CAE7"/>
		<stop  offset="0.5176" style="stop-color:#FBE736"/>
		<stop  offset="1" style="stop-color:#F04D25"/>
	</linearGradient>
	<polygon fill="url(#SVGID_9_)" points="210.27,67.283 209.892,67.848 204.646,64.311 205.024,63.746 	"/>
	
		<linearGradient id="SVGID_10_" gradientUnits="userSpaceOnUse" x1="118.2456" y1="9.927" x2="144.2127" y2="-40.8044" gradientTransform="matrix(1 0 0 -1 84 69.8208)">
		<stop  offset="0" style="stop-color:#60CAE7"/>
		<stop  offset="0.5176" style="stop-color:#FBE736"/>
		<stop  offset="1" style="stop-color:#F04D25"/>
	</linearGradient>
	<polygon fill="url(#SVGID_10_)" points="209.246,68.806 208.949,69.415 203.263,66.642 203.561,66.029 	"/>
	
		<linearGradient id="SVGID_11_" gradientUnits="userSpaceOnUse" x1="116.6729" y1="9.1204" x2="142.6364" y2="-41.6041" gradientTransform="matrix(1 0 0 -1 84 69.8208)">
		<stop  offset="0" style="stop-color:#60CAE7"/>
		<stop  offset="0.5176" style="stop-color:#FBE736"/>
		<stop  offset="1" style="stop-color:#F04D25"/>
	</linearGradient>
	<polygon fill="url(#SVGID_11_)" points="208.444,70.457 208.234,71.101 202.218,69.146 202.427,68.5 	"/>
	
		<linearGradient id="SVGID_12_" gradientUnits="userSpaceOnUse" x1="115.2915" y1="8.4104" x2="141.2514" y2="-42.3068" gradientTransform="matrix(1 0 0 -1 84 69.8208)">
		<stop  offset="0" style="stop-color:#60CAE7"/>
		<stop  offset="0.5176" style="stop-color:#FBE736"/>
		<stop  offset="1" style="stop-color:#F04D25"/>
	</linearGradient>
	<polygon fill="url(#SVGID_12_)" points="207.878,72.199 207.762,72.866 201.53,71.768 201.647,71.101 	"/>
	
		<linearGradient id="SVGID_13_" gradientUnits="userSpaceOnUse" x1="114.1284" y1="7.8167" x2="140.0861" y2="-42.8962" gradientTransform="matrix(1 0 0 -1 84 69.8208)">
		<stop  offset="0" style="stop-color:#60CAE7"/>
		<stop  offset="0.5176" style="stop-color:#FBE736"/>
		<stop  offset="1" style="stop-color:#F04D25"/>
	</linearGradient>
	<polygon fill="url(#SVGID_13_)" points="207.563,74.005 207.539,74.682 201.214,74.461 201.237,73.783 	"/>
	
		<linearGradient id="SVGID_14_" gradientUnits="userSpaceOnUse" x1="113.2085" y1="7.3445" x2="139.1672" y2="-43.3704" gradientTransform="matrix(1 0 0 -1 84 69.8208)">
		<stop  offset="0" style="stop-color:#60CAE7"/>
		<stop  offset="0.5176" style="stop-color:#FBE736"/>
		<stop  offset="1" style="stop-color:#F04D25"/>
	</linearGradient>
	<polygon fill="url(#SVGID_14_)" points="207.501,75.838 207.572,76.513 201.277,77.171 201.207,76.497 	"/>
	
		<linearGradient id="SVGID_15_" gradientUnits="userSpaceOnUse" x1="112.5474" y1="7.0081" x2="138.5104" y2="-43.7151" gradientTransform="matrix(1 0 0 -1 84 69.8208)">
		<stop  offset="0" style="stop-color:#60CAE7"/>
		<stop  offset="0.5176" style="stop-color:#FBE736"/>
		<stop  offset="1" style="stop-color:#F04D25"/>
	</linearGradient>
	<polygon fill="url(#SVGID_15_)" points="207.694,77.658 207.858,78.319 201.718,79.851 201.554,79.189 	"/>
	
		<linearGradient id="SVGID_16_" gradientUnits="userSpaceOnUse" x1="112.1685" y1="6.7913" x2="138.1063" y2="-43.8828" gradientTransform="matrix(1 0 0 -1 84 69.8208)">
		<stop  offset="0" style="stop-color:#60CAE7"/>
		<stop  offset="0.5176" style="stop-color:#FBE736"/>
		<stop  offset="1" style="stop-color:#F04D25"/>
	</linearGradient>
	<polygon fill="url(#SVGID_16_)" points="208.14,79.438 208.392,80.066 202.529,82.437 202.271,81.807 	"/>
	
		<linearGradient id="SVGID_17_" gradientUnits="userSpaceOnUse" x1="112.0566" y1="6.7346" x2="137.9967" y2="-43.9438" gradientTransform="matrix(1 0 0 -1 84 69.8208)">
		<stop  offset="0" style="stop-color:#60CAE7"/>
		<stop  offset="0.5176" style="stop-color:#FBE736"/>
		<stop  offset="1" style="stop-color:#F04D25"/>
	</linearGradient>
	<polygon fill="url(#SVGID_17_)" points="208.828,81.136 209.166,81.724 203.686,84.886 203.347,84.302 	"/>
	
		<linearGradient id="SVGID_18_" gradientUnits="userSpaceOnUse" x1="112.2227" y1="6.8333" x2="138.1789" y2="-43.8769" gradientTransform="matrix(1 0 0 -1 84 69.8208)">
		<stop  offset="0" style="stop-color:#60CAE7"/>
		<stop  offset="0.5176" style="stop-color:#FBE736"/>
		<stop  offset="1" style="stop-color:#F04D25"/>
	</linearGradient>
	<polygon fill="url(#SVGID_18_)" points="209.748,82.726 210.162,83.26 205.175,87.152 204.757,86.62 	"/>
	
		<linearGradient id="SVGID_19_" gradientUnits="userSpaceOnUse" x1="112.6724" y1="7.0725" x2="138.6356" y2="-43.6512" gradientTransform="matrix(1 0 0 -1 84 69.8208)">
		<stop  offset="0" style="stop-color:#60CAE7"/>
		<stop  offset="0.5176" style="stop-color:#FBE736"/>
		<stop  offset="1" style="stop-color:#F04D25"/>
	</linearGradient>
	<polygon fill="url(#SVGID_19_)" points="210.88,84.167 211.365,84.64 206.966,89.19 206.479,88.721 	"/>
	
		<linearGradient id="SVGID_20_" gradientUnits="userSpaceOnUse" x1="113.3945" y1="7.4407" x2="139.3582" y2="-43.284" gradientTransform="matrix(1 0 0 -1 84 69.8208)">
		<stop  offset="0" style="stop-color:#60CAE7"/>
		<stop  offset="0.5176" style="stop-color:#FBE736"/>
		<stop  offset="1" style="stop-color:#F04D25"/>
	</linearGradient>
	<polygon fill="url(#SVGID_20_)" points="212.196,85.44 212.744,85.838 209.026,90.957 208.477,90.561 	"/>
	
		<linearGradient id="SVGID_21_" gradientUnits="userSpaceOnUse" x1="114.374" y1="7.9421" x2="140.3376" y2="-42.7824" gradientTransform="matrix(1 0 0 -1 84 69.8208)">
		<stop  offset="0" style="stop-color:#60CAE7"/>
		<stop  offset="0.5176" style="stop-color:#FBE736"/>
		<stop  offset="1" style="stop-color:#F04D25"/>
	</linearGradient>
	<polygon fill="url(#SVGID_21_)" points="213.679,86.513 214.281,86.833 211.307,92.425 210.708,92.103 	"/>
	
		<linearGradient id="SVGID_22_" gradientUnits="userSpaceOnUse" x1="115.5898" y1="8.5564" x2="141.5488" y2="-42.159" gradientTransform="matrix(1 0 0 -1 84 69.8208)">
		<stop  offset="0" style="stop-color:#60CAE7"/>
		<stop  offset="0.5176" style="stop-color:#FBE736"/>
		<stop  offset="1" style="stop-color:#F04D25"/>
	</linearGradient>
	<polygon fill="url(#SVGID_22_)" points="215.3,87.374 215.936,87.606 213.772,93.555 213.136,93.321 	"/>
	
		<linearGradient id="SVGID_23_" gradientUnits="userSpaceOnUse" x1="117.0107" y1="9.3015" x2="142.9811" y2="-41.4362" gradientTransform="matrix(1 0 0 -1 84 69.8208)">
		<stop  offset="0" style="stop-color:#60CAE7"/>
		<stop  offset="0.5176" style="stop-color:#FBE736"/>
		<stop  offset="1" style="stop-color:#F04D25"/>
	</linearGradient>
	<polygon fill="url(#SVGID_23_)" points="217.022,87.999 217.686,88.14 216.371,94.331 215.707,94.189 	"/>
	
		<linearGradient id="SVGID_24_" gradientUnits="userSpaceOnUse" x1="118.6265" y1="10.1243" x2="144.5946" y2="-40.609" gradientTransform="matrix(1 0 0 -1 84 69.8208)">
		<stop  offset="0" style="stop-color:#60CAE7"/>
		<stop  offset="0.5176" style="stop-color:#FBE736"/>
		<stop  offset="1" style="stop-color:#F04D25"/>
	</linearGradient>
	<polygon fill="url(#SVGID_24_)" points="218.814,88.38 219.492,88.425 219.052,94.738 218.376,94.693 	"/>
	
		<linearGradient id="SVGID_25_" gradientUnits="userSpaceOnUse" x1="120.3936" y1="11.0247" x2="146.3587" y2="-39.7027" gradientTransform="matrix(1 0 0 -1 84 69.8208)">
		<stop  offset="0" style="stop-color:#60CAE7"/>
		<stop  offset="0.5176" style="stop-color:#FBE736"/>
		<stop  offset="1" style="stop-color:#F04D25"/>
	</linearGradient>
	<polygon fill="url(#SVGID_25_)" points="220.646,88.508 221.322,88.458 221.764,94.771 221.085,94.821 	"/>
	
		<linearGradient id="SVGID_26_" gradientUnits="userSpaceOnUse" x1="122.2847" y1="11.9875" x2="148.2465" y2="-38.7334" gradientTransform="matrix(1 0 0 -1 84 69.8208)">
		<stop  offset="0" style="stop-color:#60CAE7"/>
		<stop  offset="0.5176" style="stop-color:#FBE736"/>
		<stop  offset="1" style="stop-color:#F04D25"/>
	</linearGradient>
	<polygon fill="url(#SVGID_26_)" points="222.475,88.376 223.137,88.234 224.455,94.427 223.792,94.565 	"/>
	
		<linearGradient id="SVGID_27_" gradientUnits="userSpaceOnUse" x1="124.2456" y1="13.0017" x2="150.2146" y2="-37.7332" gradientTransform="matrix(1 0 0 -1 84 69.8208)">
		<stop  offset="0" style="stop-color:#60CAE7"/>
		<stop  offset="0.5176" style="stop-color:#FBE736"/>
		<stop  offset="1" style="stop-color:#F04D25"/>
	</linearGradient>
	<polygon fill="url(#SVGID_27_)" points="224.267,87.993 224.902,87.761 227.066,93.709 226.43,93.94 	"/>
	
		<linearGradient id="SVGID_28_" gradientUnits="userSpaceOnUse" x1="126.2651" y1="14.0266" x2="152.2282" y2="-36.6968" gradientTransform="matrix(1 0 0 -1 84 69.8208)">
		<stop  offset="0" style="stop-color:#60CAE7"/>
		<stop  offset="0.5176" style="stop-color:#FBE736"/>
		<stop  offset="1" style="stop-color:#F04D25"/>
	</linearGradient>
	<polygon fill="url(#SVGID_28_)" points="225.99,87.362 226.589,87.045 229.557,92.636 228.96,92.954 	"/>
	
		<linearGradient id="SVGID_29_" gradientUnits="userSpaceOnUse" x1="128.2798" y1="15.071" x2="154.2513" y2="-35.6688" gradientTransform="matrix(1 0 0 -1 84 69.8208)">
		<stop  offset="0" style="stop-color:#60CAE7"/>
		<stop  offset="0.5176" style="stop-color:#FBE736"/>
		<stop  offset="1" style="stop-color:#F04D25"/>
	</linearGradient>
	<polygon fill="url(#SVGID_29_)" points="227.604,86.502 228.154,86.104 231.876,91.222 231.326,91.623 	"/>
	
		<linearGradient id="SVGID_30_" gradientUnits="userSpaceOnUse" x1="130.2681" y1="16.0784" x2="156.2327" y2="-34.648" gradientTransform="matrix(1 0 0 -1 84 69.8208)">
		<stop  offset="0" style="stop-color:#60CAE7"/>
		<stop  offset="0.5176" style="stop-color:#FBE736"/>
		<stop  offset="1" style="stop-color:#F04D25"/>
	</linearGradient>
	<polygon fill="url(#SVGID_30_)" points="229.087,85.424 229.576,84.954 233.973,89.507 233.486,89.977 	"/>
	
		<linearGradient id="SVGID_31_" gradientUnits="userSpaceOnUse" x1="132.1841" y1="17.0564" x2="158.1467" y2="-33.6661" gradientTransform="matrix(1 0 0 -1 84 69.8208)">
		<stop  offset="0" style="stop-color:#60CAE7"/>
		<stop  offset="0.5176" style="stop-color:#FBE736"/>
		<stop  offset="1" style="stop-color:#F04D25"/>
	</linearGradient>
	<polygon fill="url(#SVGID_31_)" points="230.408,84.147 230.822,83.616 235.81,87.511 235.395,88.047 	"/>
	
		<linearGradient id="SVGID_32_" gradientUnits="userSpaceOnUse" x1="133.9878" y1="17.9783" x2="159.9502" y2="-32.7437" gradientTransform="matrix(1 0 0 -1 84 69.8208)">
		<stop  offset="0" style="stop-color:#60CAE7"/>
		<stop  offset="0.5176" style="stop-color:#FBE736"/>
		<stop  offset="1" style="stop-color:#F04D25"/>
	</linearGradient>
	<polygon fill="url(#SVGID_32_)" points="231.535,82.705 231.873,82.115 237.354,85.28 237.015,85.869 	"/>
	
		<linearGradient id="SVGID_33_" gradientUnits="userSpaceOnUse" x1="135.6475" y1="18.825" x2="161.6075" y2="-31.8925" gradientTransform="matrix(1 0 0 -1 84 69.8208)">
		<stop  offset="0" style="stop-color:#60CAE7"/>
		<stop  offset="0.5176" style="stop-color:#FBE736"/>
		<stop  offset="1" style="stop-color:#F04D25"/>
	</linearGradient>
	<polygon fill="url(#SVGID_33_)" points="232.451,81.115 232.701,80.49 238.569,82.855 238.313,83.488 	"/>
	
		<linearGradient id="SVGID_34_" gradientUnits="userSpaceOnUse" x1="137.1323" y1="19.5793" x2="163.0886" y2="-31.1307" gradientTransform="matrix(1 0 0 -1 84 69.8208)">
		<stop  offset="0" style="stop-color:#60CAE7"/>
		<stop  offset="0.5176" style="stop-color:#FBE736"/>
		<stop  offset="1" style="stop-color:#F04D25"/>
	</linearGradient>
	<polygon fill="url(#SVGID_34_)" points="233.137,79.415 233.294,78.757 239.438,80.286 239.276,80.945 	"/>
	
		<linearGradient id="SVGID_35_" gradientUnits="userSpaceOnUse" x1="138.3965" y1="20.2463" x2="164.3655" y2="-30.4887" gradientTransform="matrix(1 0 0 -1 84 69.8208)">
		<stop  offset="0" style="stop-color:#60CAE7"/>
		<stop  offset="0.5176" style="stop-color:#FBE736"/>
		<stop  offset="1" style="stop-color:#F04D25"/>
	</linearGradient>
	<polygon fill="url(#SVGID_35_)" points="233.576,77.637 233.646,76.961 239.939,77.624 239.867,78.297 	"/>
	
		<linearGradient id="SVGID_36_" gradientUnits="userSpaceOnUse" x1="139.4434" y1="20.7766" x2="165.4095" y2="-29.9527" gradientTransform="matrix(1 0 0 -1 84 69.8208)">
		<stop  offset="0" style="stop-color:#60CAE7"/>
		<stop  offset="0.5176" style="stop-color:#FBE736"/>
		<stop  offset="1" style="stop-color:#F04D25"/>
	</linearGradient>
	<polygon fill="url(#SVGID_36_)" points="233.765,75.813 233.742,75.134 240.067,74.914 240.091,75.591 	"/>
	
		<linearGradient id="SVGID_37_" gradientUnits="userSpaceOnUse" x1="140.2285" y1="21.196" x2="166.2088" y2="-29.5612" gradientTransform="matrix(1 0 0 -1 84 69.8208)">
		<stop  offset="0" style="stop-color:#60CAE7"/>
		<stop  offset="0.5176" style="stop-color:#FBE736"/>
		<stop  offset="1" style="stop-color:#F04D25"/>
	</linearGradient>
	<polygon fill="url(#SVGID_37_)" points="233.697,73.979 233.58,73.312 239.813,72.214 239.932,72.884 	"/>
	<polygon fill="#939598" points="233.38,72.173 233.169,71.531 239.19,69.573 239.398,70.221 	"/>
	
		<rect x="235.165" y="65.586" transform="matrix(-0.4362 -0.8998 0.8998 -0.4362 276.3658 310.6567)" fill="#939598" width="0.676" height="6.329"/>
	<polygon fill="#939598" points="232.005,68.786 231.626,68.22 236.873,64.685 237.251,65.244 	"/>
	
		<rect x="232.777" y="61.728" transform="matrix(-0.6694 -0.7429 0.7429 -0.6694 340.9454 281.5155)" fill="#939598" width="0.677" height="6.326"/>
	
		<rect x="231.187" y="60.094" transform="matrix(-0.7661 -0.6427 0.6427 -0.7661 368.2441 260.5279)" fill="#939598" width="0.681" height="6.327"/>
	<polygon fill="#939598" points="228.349,64.727 227.771,64.37 231.125,59.003 231.701,59.36 	"/>
	
		<linearGradient id="SVGID_38_" gradientUnits="userSpaceOnUse" x1="138.1328" y1="20.0989" x2="164.0875" y2="-30.608" gradientTransform="matrix(1 0 0 -1 84 69.8208)">
		<stop  offset="0" style="stop-color:#60CAE7"/>
		<stop  offset="0.5176" style="stop-color:#FBE736"/>
		<stop  offset="1" style="stop-color:#F04D25"/>
	</linearGradient>
	<polygon fill="url(#SVGID_38_)" points="226.791,63.758 226.169,63.484 228.746,57.704 229.367,57.975 	"/>
	
		<linearGradient id="SVGID_39_" gradientUnits="userSpaceOnUse" x1="136.8086" y1="19.4226" x2="162.763" y2="-31.2839" gradientTransform="matrix(1 0 0 -1 84 69.8208)">
		<stop  offset="0" style="stop-color:#60CAE7"/>
		<stop  offset="0.5176" style="stop-color:#FBE736"/>
		<stop  offset="1" style="stop-color:#F04D25"/>
	</linearGradient>
	<polygon fill="url(#SVGID_39_)" points="225.115,63.015 224.462,62.829 226.208,56.741 226.861,56.931 	"/>
	
		<linearGradient id="SVGID_40_" gradientUnits="userSpaceOnUse" x1="135.2832" y1="18.6458" x2="161.2419" y2="-32.069" gradientTransform="matrix(1 0 0 -1 84 69.8208)">
		<stop  offset="0" style="stop-color:#60CAE7"/>
		<stop  offset="0.5176" style="stop-color:#FBE736"/>
		<stop  offset="1" style="stop-color:#F04D25"/>
	</linearGradient>
	<polygon fill="url(#SVGID_40_)" points="223.35,62.508 222.681,62.417 223.564,56.147 224.233,56.246 	"/>
</g>
</svg>
