<?xml version="1.0" encoding="utf-8"?>
<!-- Generator: Adobe Illustrator 16.0.0, SVG Export Plug-In . SVG Version: 6.00 Build 0)  -->
<!DOCTYPE svg PUBLIC "-//W3C//DTD SVG 1.1//EN" "http://www.w3.org/Graphics/SVG/1.1/DTD/svg11.dtd">
<svg version="1.1" id="Layer_1" xmlns="http://www.w3.org/2000/svg" xmlns:xlink="http://www.w3.org/1999/xlink" x="0px" y="0px"
	 width="265.468px" height="55.587px" viewBox="0 0 265.468 55.587" enable-background="new 0 0 265.468 55.587"
	 xml:space="preserve">
<g>
	<rect x="0.754" y="40.114" fill="#FFFFFF" width="264.714" height="0.278"/>
	<g>
		<path fill="#FFFFFF" d="M12.712,14.71c-0.802-0.009-1.486,0.073-2.044,0.273c-0.561,0.177-1.011,0.421-1.375,0.713
			c-0.37,0.294-0.652,0.615-0.858,0.954c-0.216,0.349-0.364,0.668-0.479,0.973c0.263,0.247,0.484,0.513,0.675,0.786
			c0.196,0.276,0.358,0.574,0.481,0.9c0.124,0.323,0.216,0.685,0.285,1.083c0.061,0.402,0.092,0.846,0.092,1.34v14.446H2.126v-14.64
			c0-0.301-0.038-0.608-0.089-0.925c-0.063-0.327-0.177-0.637-0.339-0.957c-0.155-0.304-0.367-0.615-0.656-0.919
			C0.767,18.437,0.425,18.161,0,17.898c0.175-0.767,0.438-1.533,0.779-2.297c0.336-0.764,0.764-1.496,1.286-2.199
			c0.52-0.704,1.135-1.356,1.828-1.958c0.697-0.608,1.493-1.131,2.377-1.581c0.877-0.446,1.856-0.805,2.934-1.061
			c1.064-0.25,2.25-0.38,3.508-0.38c1.492,0,2.836,0.13,4.049,0.415c1.188,0.285,2.25,0.669,3.169,1.179
			c0.925,0.498,1.717,1.087,2.37,1.787c0.668,0.685,1.2,1.445,1.625,2.275c0.408,0.83,0.709,1.717,0.916,2.652
			c0.202,0.941,0.294,1.907,0.294,2.883v16.566h-7.486V20.151c0-0.428-0.028-0.846-0.086-1.283c-0.054-0.431-0.14-0.849-0.278-1.255
			c-0.127-0.405-0.32-0.779-0.555-1.128c-0.222-0.349-0.52-0.656-0.894-0.928c-0.364-0.26-0.812-0.462-1.324-0.624
			C13.998,14.78,13.39,14.71,12.712,14.71z"/>
		<path fill="#FFFFFF" d="M26.466,18.548c0-1.705,0.27-3.2,0.811-4.461c0.552-1.267,1.271-2.319,2.161-3.162
			c0.909-0.839,1.923-1.47,3.077-1.882c1.156-0.415,2.354-0.621,3.57-0.621c0.875,0,1.742,0.086,2.563,0.247
			c0.849,0.165,1.625,0.418,2.37,0.757c0.738,0.345,1.416,0.77,2.03,1.28c0.615,0.507,1.153,1.118,1.606,1.815
			c0.438,0.691,0.786,1.479,1.036,2.37c0.247,0.884,0.371,1.857,0.371,2.925v18.362h-7.421V18.693c0-1.359-0.219-2.335-0.643-2.918
			c-0.435-0.58-1.056-0.868-1.914-0.868c-0.735,0-1.337,0.279-1.797,0.859c-0.462,0.567-0.738,1.495-0.817,2.782H26.466z"/>
		<path fill="#FFFFFF" d="M54.687,26.096c0.045,0.748,0.158,1.388,0.349,1.927c0.171,0.545,0.425,0.988,0.754,1.33
			c0.336,0.343,0.732,0.603,1.214,0.761c0.491,0.165,1.064,0.234,1.714,0.234c0.304,0,0.605-0.031,0.916-0.107
			c0.294-0.076,0.567-0.19,0.817-0.367c0.237-0.165,0.44-0.374,0.596-0.646c0.146-0.26,0.222-0.57,0.222-0.957
			c0-0.393-0.054-0.723-0.19-1.021c-0.12-0.291-0.326-0.57-0.627-0.843c-0.32-0.266-0.713-0.532-1.236-0.798
			c-0.516-0.266-1.172-0.558-1.977-0.894c-0.795-0.33-1.581-0.653-2.345-0.982c-0.751-0.33-1.485-0.678-2.154-1.047
			c-0.675-0.352-1.303-0.738-1.876-1.153c-0.576-0.415-1.07-0.881-1.489-1.4c-0.408-0.52-0.729-1.09-0.956-1.711
			c-0.232-0.627-0.358-1.337-0.358-2.123c0-0.963,0.148-1.819,0.418-2.583c0.275-0.76,0.624-1.432,1.112-2.009
			c0.479-0.577,1.033-1.068,1.66-1.477c0.631-0.412,1.296-0.748,2.016-1.007c0.709-0.25,1.444-0.44,2.195-0.561
			c0.754-0.12,1.502-0.177,2.215-0.177c0.94,0,1.834,0.066,2.712,0.206c0.871,0.133,1.679,0.361,2.449,0.684
			c0.767,0.304,1.477,0.719,2.116,1.226c0.641,0.501,1.191,1.131,1.66,1.87c0.463,0.735,0.85,1.606,1.119,2.588
			c0.281,1.001,0.446,2.136,0.481,3.416h-7.256c0-0.682-0.066-1.28-0.219-1.759c-0.146-0.485-0.358-0.875-0.627-1.172
			c-0.288-0.294-0.603-0.51-0.979-0.649c-0.377-0.13-0.785-0.2-1.248-0.2c-0.678,0-1.207,0.149-1.613,0.443
			c-0.402,0.308-0.599,0.691-0.599,1.173c0,0.307,0.054,0.573,0.155,0.82c0.102,0.241,0.305,0.481,0.583,0.713
			c0.295,0.228,0.69,0.472,1.207,0.732c0.507,0.247,1.191,0.532,2.006,0.849c1.701,0.659,3.14,1.321,4.306,1.983
			c1.16,0.656,2.101,1.337,2.813,2.045c0.72,0.709,1.242,1.451,1.55,2.237c0.311,0.779,0.472,1.622,0.472,2.535
			c0,1.04-0.13,1.977-0.396,2.813c-0.267,0.831-0.637,1.56-1.106,2.187c-0.472,0.634-1.045,1.166-1.698,1.609
			c-0.649,0.444-1.378,0.812-2.157,1.084c-0.789,0.272-1.626,0.469-2.516,0.608c-0.884,0.12-1.797,0.19-2.731,0.19
			c-1.378,0-2.719-0.197-3.986-0.596c-1.27-0.387-2.407-1.015-3.399-1.863c-1.001-0.843-1.809-1.939-2.424-3.282
			c-0.64-1.338-0.981-2.966-1.07-4.88H54.687z"/>
		<path fill="#FFFFFF" d="M70.517,36.178V9.017h7.492v27.161H70.517z"/>
		<path fill="#FFFFFF" d="M90.313,30.418c0.044,0.158,0.095,0.291,0.187,0.398c0.096,0.102,0.174,0.152,0.27,0.152
			c0.095,0,0.161-0.051,0.222-0.158c0.066-0.107,0.102-0.292,0.102-0.532V14.514h-3.349V9.017h10.781v20.077
			c0,0.976-0.102,1.857-0.295,2.624c-0.205,0.767-0.478,1.432-0.83,2.002c-0.37,0.57-0.788,1.059-1.283,1.451
			c-0.487,0.399-1.045,0.729-1.638,0.977c-0.604,0.247-1.251,0.424-1.933,0.538c-0.675,0.107-1.381,0.158-2.116,0.158
			c-0.985,0-1.851-0.126-2.646-0.367c-0.776-0.254-1.483-0.608-2.092-1.071c-0.611-0.462-1.134-1.032-1.571-1.698
			c-0.428-0.658-0.779-1.4-1.058-2.23l-4.072-12.19h7.658L90.313,30.418z"/>
		<path fill="#FFFFFF" d="M78.311,5.833L80.75,0h17.774v5.833H78.311z"/>
		<path fill="#FFFFFF" d="M116.277,36.178v-2.459c-0.922,0.938-1.933,1.686-3.045,2.23c-1.112,0.558-2.256,0.831-3.466,0.831
			c-1.813,0-3.33-0.229-4.563-0.704c-1.236-0.469-2.23-1.134-2.991-2.015s-1.296-1.927-1.619-3.169
			c-0.329-1.235-0.491-2.617-0.491-4.125V9.017h7.351v16.636c0,0.678,0.095,1.293,0.301,1.831c0.193,0.539,0.466,1.008,0.821,1.401
			c0.345,0.386,0.772,0.678,1.268,0.887c0.5,0.202,1.045,0.304,1.644,0.304c0.96,0,1.728-0.178,2.326-0.538
			c0.602-0.374,1.062-0.856,1.391-1.489c0.329-0.634,0.558-1.369,0.669-2.212c0.11-0.849,0.168-1.755,0.168-2.712V9.017h7.42v27.161
			H116.277z"/>
		<path fill="#FFFFFF" d="M133.313,22.59v4.716c0,0.545,0.096,1.008,0.292,1.388c0.193,0.38,0.462,0.704,0.788,0.944
			c0.324,0.254,0.713,0.432,1.163,0.545c0.431,0.114,0.9,0.165,1.42,0.165c0.459,0,0.903-0.031,1.347-0.102
			c0.449-0.063,0.84-0.189,1.179-0.373c0.357-0.172,0.64-0.419,0.849-0.723c0.229-0.311,0.336-0.704,0.336-1.185
			c0-0.298-0.01-0.577-0.025-0.849c-0.006-0.279-0.047-0.545-0.137-0.811c-0.082-0.266-0.221-0.526-0.428-0.78
			c-0.205-0.253-0.5-0.507-0.883-0.76c-0.384-0.247-0.891-0.513-1.493-0.76c-0.608-0.266-1.358-0.539-2.262-0.817
			c-0.843-0.234-1.651-0.486-2.472-0.728c-0.799-0.25-1.559-0.522-2.278-0.82c-0.722-0.308-1.397-0.646-2.005-1.026
			c-0.618-0.374-1.138-0.805-1.582-1.293c-0.434-0.498-0.788-1.064-1.042-1.683c-0.247-0.627-0.367-1.334-0.367-2.139
			c0-0.909,0.151-1.717,0.456-2.427c0.298-0.694,0.723-1.306,1.238-1.828c0.526-0.529,1.129-0.963,1.822-1.315
			c0.688-0.349,1.436-0.634,2.202-0.852c0.776-0.216,1.575-0.358,2.392-0.457c0.812-0.092,1.588-0.136,2.361-0.136
			c1.001,0,1.964,0.066,2.918,0.222c0.947,0.152,1.831,0.393,2.668,0.713c0.843,0.323,1.605,0.745,2.303,1.261
			c0.697,0.51,1.287,1.131,1.787,1.856c0.494,0.726,0.894,1.568,1.166,2.516c0.279,0.963,0.418,2.034,0.418,3.234h-7.195
			c-0.021-0.681-0.133-1.258-0.326-1.736c-0.206-0.482-0.488-0.881-0.82-1.182c-0.339-0.316-0.735-0.542-1.194-0.703
			c-0.444-0.168-0.913-0.263-1.433-0.295c-0.418-0.038-0.823-0.038-1.217-0.009c-0.37,0.022-0.713,0.088-1.001,0.177
			c-0.292,0.092-0.52,0.225-0.697,0.377c-0.158,0.168-0.247,0.358-0.247,0.583c0,0.209,0.096,0.406,0.264,0.593
			c0.18,0.19,0.414,0.371,0.69,0.548c0.278,0.181,0.583,0.355,0.95,0.51c0.355,0.168,0.71,0.317,1.059,0.447
			c0.364,0.136,0.706,0.257,1.029,0.364c0.32,0.111,0.59,0.2,0.827,0.253c1.049,0.333,2.04,0.643,2.956,0.954
			c0.922,0.311,1.756,0.65,2.497,1.018c0.747,0.37,1.416,0.786,1.999,1.245c0.576,0.459,1.062,0.995,1.451,1.617
			c0.387,0.615,0.693,1.318,0.894,2.123c0.196,0.805,0.301,1.729,0.301,2.794c0,1.045-0.146,1.99-0.453,2.82
			c-0.304,0.843-0.719,1.584-1.235,2.243c-0.535,0.634-1.166,1.197-1.886,1.667c-0.722,0.456-1.492,0.843-2.335,1.146
			c-0.826,0.298-1.707,0.52-2.63,0.665c-0.902,0.134-1.809,0.21-2.715,0.21c-0.944,0-1.86-0.07-2.775-0.19
			c-0.916-0.14-1.769-0.336-2.586-0.608c-0.811-0.272-1.584-0.634-2.269-1.084c-0.706-0.431-1.312-0.956-1.821-1.584
			c-0.517-0.627-0.906-1.35-1.191-2.173c-0.288-0.812-0.438-1.736-0.438-2.77V22.59H133.313z"/>
		<path fill="#FFFFFF" d="M166.667,36.178v-2.459c-0.918,0.938-1.951,1.686-3.048,2.23c-1.112,0.558-2.271,0.831-3.463,0.831
			c-1.815,0-3.343-0.229-4.571-0.704c-1.242-0.469-2.24-1.134-2.982-2.015c-0.76-0.881-1.302-1.927-1.628-3.169
			c-0.327-1.235-0.494-2.617-0.494-4.125V9.017h7.356v16.636c0,0.678,0.092,1.293,0.301,1.831c0.197,0.539,0.467,1.008,0.818,1.401
			c0.357,0.386,0.782,0.678,1.279,0.887c0.488,0.202,1.036,0.304,1.629,0.304c0.96,0,1.736-0.178,2.335-0.538
			c0.589-0.374,1.056-0.856,1.392-1.489c0.326-0.634,0.551-1.369,0.665-2.212c0.11-0.849,0.171-1.755,0.171-2.712V9.017h7.43v27.161
			H166.667z"/>
		<path fill="#FFFFFF" d="M175.188,18.548c0-1.705,0.269-3.191,0.817-4.461c0.545-1.267,1.271-2.319,2.157-3.162
			c0.9-0.839,1.927-1.47,3.07-1.882c1.166-0.415,2.351-0.621,3.564-0.621c0.881,0,1.743,0.086,2.586,0.247
			c0.827,0.165,1.615,0.418,2.356,0.757c0.738,0.345,1.417,0.77,2.035,1.287c0.617,0.5,1.162,1.112,1.597,1.809
			c0.452,0.691,0.792,1.479,1.042,2.37c0.247,0.884,0.361,1.857,0.361,2.925v18.362h-7.42V18.693c0-1.359-0.223-2.335-0.646-2.918
			c-0.419-0.58-1.056-0.868-1.911-0.868c-0.729,0-1.331,0.279-1.79,0.859c-0.466,0.567-0.741,1.495-0.824,2.782H175.188z"/>
		<path fill="#FFFFFF" d="M204.632,36.178h-7.361v-16.37c0-0.992,0.093-1.964,0.285-2.912c0.185-0.954,0.482-1.851,0.878-2.696
			c0.405-0.83,0.923-1.609,1.56-2.319c0.646-0.713,1.409-1.331,2.318-1.838c0.897-0.513,1.939-0.912,3.115-1.194
			c1.176-0.288,2.519-0.428,4.018-0.428c1.467,0,2.797,0.14,3.977,0.428c1.169,0.282,2.205,0.681,3.095,1.194
			c0.891,0.507,1.647,1.125,2.275,1.838c0.634,0.71,1.146,1.489,1.543,2.319c0.405,0.846,0.697,1.743,0.884,2.696
			c0.181,0.947,0.272,1.92,0.272,2.912v16.37h-7.43V19.612c0-0.621-0.063-1.223-0.19-1.796c-0.139-0.574-0.364-1.071-0.706-1.502
			c-0.346-0.428-0.817-0.783-1.407-1.033c-0.602-0.247-1.372-0.374-2.313-0.374c-0.944,0-1.73,0.126-2.352,0.374
			c-0.614,0.25-1.115,0.605-1.467,1.033c-0.371,0.431-0.634,0.928-0.776,1.502c-0.146,0.573-0.218,1.175-0.218,1.796v1.926
			c0.846-0.792,1.809-1.4,2.879-1.806c1.059-0.399,2.32-0.625,3.755-0.653v5.837c-1.292,0.057-2.37,0.267-3.231,0.634
			c-0.846,0.368-1.521,0.881-2.021,1.534c-0.517,0.666-0.871,1.445-1.074,2.364c-0.209,0.912-0.307,1.945-0.307,3.092V36.178z"/>
		<path fill="#FFFFFF" d="M222.831,18.548c0-1.705,0.275-3.191,0.82-4.461c0.541-1.267,1.268-2.319,2.16-3.162
			c0.897-0.839,1.921-1.47,3.077-1.882c1.153-0.415,2.335-0.621,3.555-0.621c0.891,0,1.736,0.086,2.582,0.247
			c0.843,0.165,1.622,0.418,2.36,0.757c0.729,0.345,1.417,0.77,2.035,1.287c0.62,0.5,1.159,1.112,1.603,1.809
			c0.443,0.691,0.792,1.479,1.042,2.37c0.244,0.884,0.365,1.857,0.365,2.925v18.362h-7.427V18.693c0-1.359-0.216-2.335-0.638-2.918
			c-0.421-0.58-1.064-0.868-1.923-0.868c-0.735,0-1.321,0.279-1.784,0.859c-0.462,0.567-0.734,1.495-0.826,2.782H222.831z"/>
		<path fill="#FFFFFF" d="M251.058,26.096c0.055,0.748,0.165,1.388,0.34,1.927c0.177,0.545,0.428,0.988,0.75,1.33
			c0.34,0.343,0.748,0.603,1.229,0.761c0.479,0.158,1.052,0.234,1.705,0.234c0.308,0,0.62-0.031,0.915-0.107
			c0.298-0.076,0.583-0.19,0.818-0.367c0.246-0.165,0.437-0.381,0.598-0.646c0.156-0.26,0.223-0.57,0.223-0.957
			c0-0.393-0.058-0.729-0.178-1.021c-0.123-0.291-0.339-0.57-0.643-0.843c-0.302-0.266-0.707-0.532-1.227-0.798
			s-1.182-0.558-1.98-0.894c-0.792-0.33-1.578-0.653-2.338-0.982c-0.761-0.33-1.492-0.678-2.171-1.047
			c-0.672-0.352-1.302-0.738-1.872-1.163c-0.577-0.406-1.071-0.872-1.477-1.391c-0.409-0.52-0.729-1.09-0.967-1.711
			c-0.237-0.627-0.354-1.337-0.354-2.123c0-0.963,0.127-1.819,0.409-2.583c0.275-0.76,0.648-1.432,1.127-2.009
			c0.476-0.573,1.018-1.068,1.651-1.477c0.637-0.412,1.292-0.748,2.019-1.007c0.709-0.25,1.438-0.44,2.189-0.561
			c0.747-0.12,1.498-0.177,2.214-0.177c0.944,0,1.848,0.066,2.706,0.206c0.875,0.143,1.695,0.361,2.465,0.684
			c0.767,0.311,1.467,0.719,2.101,1.226c0.646,0.51,1.198,1.131,1.67,1.87c0.472,0.735,0.84,1.606,1.118,2.592
			c0.285,0.998,0.443,2.132,0.482,3.413h-7.253c0-0.682-0.079-1.271-0.216-1.759c-0.151-0.485-0.367-0.875-0.637-1.172
			c-0.275-0.294-0.589-0.51-0.973-0.649c-0.377-0.13-0.805-0.2-1.245-0.2c-0.675,0-1.217,0.149-1.616,0.45
			c-0.396,0.301-0.599,0.684-0.599,1.169c0,0.304,0.045,0.57,0.143,0.817c0.117,0.241,0.305,0.481,0.599,0.713
			c0.285,0.228,0.682,0.472,1.204,0.732c0.514,0.247,1.183,0.532,2.009,0.849c1.701,0.659,3.134,1.321,4.293,1.98
			c1.173,0.659,2.102,1.34,2.826,2.048c0.713,0.709,1.236,1.451,1.543,2.237c0.305,0.779,0.473,1.622,0.473,2.535
			c0,1.04-0.137,1.977-0.405,2.813c-0.251,0.831-0.628,1.56-1.093,2.187c-0.476,0.634-1.04,1.166-1.699,1.609
			c-0.655,0.444-1.368,0.812-2.164,1.084c-0.789,0.272-1.619,0.469-2.506,0.608c-0.891,0.12-1.8,0.19-2.728,0.19
			c-1.388,0-2.716-0.197-3.995-0.596c-1.268-0.387-2.399-1.015-3.395-1.863c-0.994-0.843-1.806-1.939-2.436-3.282
			c-0.621-1.338-0.973-2.966-1.071-4.88H251.058z"/>
	</g>
	<g>
		<path fill="#FFFFFF" d="M1.392,44.061h3.431l2.602,7.757h0.019l2.459-7.757h3.425v11.286h-2.319v-7.991h-0.041L8.26,55.347H6.477
			l-2.731-7.928h-0.02v7.928H1.392V44.061z"/>
		<path fill="#FFFFFF" d="M15.969,49.708c0-0.501,0.066-1.014,0.168-1.502c0.11-0.494,0.263-0.957,0.466-1.395
			c0.212-0.431,0.466-0.836,0.773-1.204c0.316-0.367,0.668-0.684,1.093-0.943c0.402-0.279,0.874-0.482,1.391-0.628
			c0.526-0.146,1.087-0.222,1.721-0.222c0.624,0,1.204,0.076,1.727,0.222s0.992,0.349,1.413,0.628
			c0.415,0.26,0.779,0.576,1.09,0.943c0.323,0.368,0.574,0.773,0.796,1.204c0.209,0.438,0.354,0.9,0.466,1.395
			c0.098,0.488,0.154,1.001,0.154,1.502c0,0.513-0.057,1.014-0.154,1.502c-0.111,0.487-0.257,0.95-0.466,1.388
			c-0.222,0.424-0.473,0.823-0.796,1.191c-0.311,0.367-0.675,0.678-1.09,0.943c-0.421,0.254-0.891,0.457-1.413,0.608
			c-0.522,0.14-1.103,0.216-1.727,0.216c-0.634,0-1.194-0.076-1.721-0.216c-0.517-0.151-0.988-0.354-1.391-0.608
			c-0.425-0.266-0.776-0.576-1.093-0.943c-0.308-0.368-0.562-0.768-0.773-1.191c-0.203-0.438-0.355-0.9-0.466-1.388
			C16.035,50.721,15.969,50.22,15.969,49.708z M18.434,49.708c0,0.311,0.025,0.614,0.073,0.919c0.051,0.311,0.127,0.596,0.237,0.881
			c0.117,0.266,0.251,0.532,0.425,0.772c0.162,0.229,0.371,0.438,0.602,0.608c0.229,0.178,0.501,0.323,0.799,0.412
			c0.298,0.102,0.637,0.152,1.011,0.152c0.37,0,0.72-0.051,1.021-0.152c0.311-0.089,0.586-0.234,0.82-0.412
			c0.247-0.171,0.44-0.38,0.608-0.608c0.171-0.24,0.308-0.507,0.421-0.772c0.111-0.285,0.184-0.57,0.248-0.881
			c0.047-0.305,0.069-0.608,0.069-0.919s-0.022-0.615-0.069-0.919c-0.064-0.305-0.137-0.596-0.248-0.881
			c-0.113-0.272-0.25-0.532-0.421-0.779c-0.168-0.241-0.361-0.456-0.608-0.628c-0.234-0.177-0.51-0.31-0.82-0.411
			c-0.301-0.102-0.65-0.152-1.021-0.152c-0.374,0-0.713,0.051-1.011,0.152s-0.57,0.234-0.799,0.411
			c-0.23,0.172-0.439,0.387-0.602,0.628c-0.174,0.247-0.308,0.507-0.425,0.779c-0.11,0.285-0.187,0.576-0.237,0.881
			C18.459,49.092,18.434,49.397,18.434,49.708z"/>
		<path fill="#FFFFFF" d="M29.885,44.061h2.424l4.762,7.566h0.022v-7.566h2.332v11.286h-2.443l-4.746-7.554H32.21v7.554h-2.325
			V44.061z"/>
		<path fill="#FFFFFF" d="M51.018,44.061v2.034H45.09v2.472h5.503v1.996H45.09v2.781h5.94v2.003h-8.364V44.061H51.018z"/>
		<path fill="#FFFFFF" d="M59.43,55.347h-2.465v-4.569l-4.356-6.717h2.938l2.712,4.448l2.633-4.448h2.845l-4.306,6.717V55.347z"/>
		<path fill="#FFFFFF" d="M77.239,54.238c-0.189,0.216-0.405,0.399-0.637,0.552c-0.24,0.158-0.484,0.285-0.754,0.399
			c-0.267,0.113-0.535,0.189-0.834,0.24c-0.294,0.063-0.57,0.083-0.855,0.083c-0.545,0-1.007-0.051-1.4-0.172
			c-0.402-0.113-0.738-0.266-1.01-0.449c-0.282-0.185-0.504-0.394-0.676-0.621c-0.171-0.234-0.291-0.476-0.393-0.716
			c-0.095-0.234-0.164-0.45-0.196-0.672s-0.054-0.412-0.054-0.564c0-0.399,0.072-0.772,0.203-1.108
			c0.113-0.317,0.288-0.615,0.503-0.881c0.222-0.254,0.47-0.494,0.751-0.697c0.289-0.209,0.59-0.412,0.906-0.596
			c-0.143-0.184-0.275-0.374-0.396-0.539c-0.126-0.184-0.24-0.36-0.332-0.551c-0.102-0.19-0.178-0.387-0.229-0.59
			c-0.06-0.209-0.085-0.431-0.085-0.684c0-0.323,0.057-0.646,0.184-0.951c0.13-0.304,0.304-0.57,0.532-0.785
			c0.244-0.241,0.539-0.412,0.878-0.552c0.342-0.127,0.731-0.203,1.188-0.203c0.384,0,0.751,0.051,1.109,0.159
			c0.358,0.101,0.675,0.253,0.95,0.462s0.494,0.463,0.666,0.779c0.164,0.305,0.26,0.666,0.26,1.071c0,0.298-0.063,0.59-0.152,0.855
			c-0.107,0.272-0.241,0.514-0.39,0.754c-0.181,0.229-0.374,0.444-0.596,0.646c-0.226,0.184-0.45,0.361-0.682,0.52
			c0.124,0.152,0.231,0.279,0.32,0.399c0.099,0.12,0.187,0.241,0.278,0.355c0.083,0.113,0.185,0.228,0.285,0.354
			c0.108,0.133,0.238,0.278,0.371,0.45c0.045-0.197,0.089-0.387,0.111-0.583c0.021-0.21,0.054-0.432,0.079-0.672h1.92
			c-0.044,0.367-0.095,0.69-0.13,0.963c-0.054,0.267-0.104,0.514-0.148,0.729c-0.051,0.222-0.118,0.419-0.185,0.603
			c-0.076,0.189-0.158,0.38-0.253,0.576l2.379,2.744h-2.493L77.239,54.238z M73.929,50.354c-0.2,0.114-0.384,0.247-0.555,0.38
			c-0.184,0.127-0.339,0.266-0.469,0.412c-0.133,0.164-0.244,0.329-0.323,0.513c-0.063,0.185-0.114,0.399-0.114,0.634
			c0,0.222,0.051,0.438,0.148,0.615c0.096,0.177,0.226,0.329,0.391,0.456c0.154,0.12,0.352,0.222,0.563,0.285
			c0.206,0.069,0.412,0.107,0.631,0.107c0.411,0,0.772-0.076,1.077-0.222c0.304-0.152,0.57-0.387,0.808-0.678L73.929,50.354z
			 M73.738,46.729c0,0.107,0.035,0.216,0.061,0.323c0.044,0.12,0.095,0.234,0.167,0.349c0.073,0.114,0.152,0.24,0.235,0.354
			c0.098,0.121,0.184,0.241,0.291,0.361c0.12-0.095,0.251-0.184,0.374-0.278c0.133-0.102,0.231-0.203,0.349-0.323
			c0.102-0.114,0.184-0.234,0.241-0.368c0.06-0.14,0.098-0.278,0.098-0.418c0-0.114-0.031-0.229-0.057-0.311
			c-0.051-0.107-0.114-0.19-0.181-0.26c-0.086-0.076-0.181-0.133-0.302-0.178c-0.11-0.044-0.25-0.057-0.389-0.057
			c-0.111,0-0.226,0.013-0.32,0.038c-0.111,0.031-0.213,0.082-0.285,0.152c-0.089,0.057-0.149,0.146-0.2,0.247
			C73.776,46.462,73.738,46.589,73.738,46.729z"/>
		<path fill="#FFFFFF" d="M91.646,44.061c0.244,0,0.518,0.013,0.812,0.013c0.298,0.007,0.59,0.013,0.875,0.051
			c0.288,0.031,0.57,0.07,0.846,0.133c0.257,0.07,0.487,0.152,0.678,0.267c0.2,0.12,0.399,0.266,0.593,0.438
			c0.184,0.158,0.336,0.349,0.475,0.558c0.159,0.215,0.267,0.443,0.35,0.709c0.085,0.248,0.136,0.52,0.136,0.824
			c0,0.254-0.041,0.494-0.104,0.723c-0.051,0.222-0.137,0.418-0.257,0.614c-0.095,0.203-0.228,0.361-0.374,0.526
			c-0.146,0.151-0.316,0.291-0.5,0.398c0.25,0.127,0.49,0.273,0.7,0.457c0.215,0.171,0.393,0.367,0.542,0.596
			c0.151,0.222,0.266,0.475,0.345,0.729c0.086,0.26,0.13,0.525,0.13,0.823c0,0.272-0.044,0.552-0.114,0.837
			c-0.079,0.285-0.184,0.545-0.332,0.799c-0.155,0.266-0.336,0.494-0.562,0.716c-0.219,0.222-0.469,0.412-0.76,0.57
			c-0.292,0.158-0.608,0.285-0.96,0.367c-0.358,0.095-0.738,0.14-1.157,0.14h-5.503V44.061H91.646z M92.052,48.662
			c0.346,0,0.643-0.031,0.881-0.095c0.247-0.058,0.446-0.146,0.599-0.272c0.149-0.114,0.263-0.254,0.333-0.412
			c0.069-0.171,0.107-0.354,0.107-0.545c0-0.285-0.051-0.501-0.146-0.672c-0.099-0.171-0.244-0.298-0.419-0.399
			c-0.18-0.095-0.383-0.151-0.617-0.184c-0.222-0.038-0.479-0.057-0.738-0.057h-2.104v2.636H92.052z M92.79,53.382
			c0.27,0,0.51-0.031,0.719-0.113c0.197-0.076,0.371-0.178,0.514-0.311c0.133-0.146,0.234-0.305,0.305-0.488
			c0.075-0.184,0.107-0.387,0.107-0.608c0-0.253-0.058-0.463-0.168-0.64c-0.111-0.184-0.264-0.323-0.44-0.432
			c-0.185-0.113-0.402-0.189-0.628-0.24c-0.23-0.058-0.459-0.082-0.703-0.082h-2.547v2.914H92.79z"/>
		<path fill="#FFFFFF" d="M102.906,44.061h2.634l4.213,11.286h-2.623l-0.849-2.522h-4.23l-0.88,2.522h-2.566L102.906,44.061z
			 M102.697,50.988h2.935l-1.426-4.145h-0.029L102.697,50.988z"/>
		<path fill="#FFFFFF" d="M111.949,44.061h2.424l4.759,7.566h0.031v-7.566h2.336v11.286h-2.453l-4.742-7.554h-0.02v7.554h-2.335
			V44.061z"/>
		<path fill="#FFFFFF" d="M124.728,44.061h2.503v4.683l4.395-4.683h3.07l-4.36,4.468l4.569,6.818h-2.864l-3.399-5.082l-1.41,1.451
			v3.631h-2.503V44.061z"/>
		<path fill="#FFFFFF" d="M139.144,44.061v11.286h-2.408V44.061H139.144z"/>
		<path fill="#FFFFFF" d="M142.537,44.061h2.427l4.756,7.566h0.035v-7.566h2.338v11.286h-2.459l-4.733-7.554h-0.022v7.554h-2.341
			V44.061z"/>
		<path fill="#FFFFFF" d="M163.509,54.194c-0.216,0.272-0.447,0.501-0.694,0.678c-0.247,0.178-0.51,0.317-0.767,0.412
			c-0.279,0.114-0.564,0.19-0.83,0.229c-0.275,0.044-0.551,0.075-0.83,0.075c-0.586,0-1.118-0.075-1.619-0.215
			c-0.504-0.133-0.96-0.33-1.372-0.577c-0.405-0.247-0.776-0.551-1.093-0.899c-0.316-0.361-0.576-0.754-0.802-1.179
			c-0.228-0.431-0.38-0.899-0.501-1.394c-0.11-0.508-0.161-1.027-0.161-1.565c0-0.552,0.051-1.097,0.161-1.61
			c0.121-0.507,0.273-0.994,0.501-1.426c0.226-0.443,0.485-0.842,0.802-1.21c0.316-0.361,0.688-0.672,1.093-0.925
			c0.412-0.254,0.868-0.456,1.372-0.583c0.501-0.152,1.033-0.216,1.619-0.216c0.377,0,0.764,0.038,1.125,0.121
			c0.387,0.075,0.738,0.189,1.084,0.348c0.332,0.152,0.652,0.336,0.934,0.57c0.299,0.216,0.555,0.476,0.783,0.773
			c0.215,0.298,0.402,0.627,0.551,0.988c0.149,0.361,0.234,0.748,0.282,1.179h-2.37c-0.069-0.311-0.171-0.589-0.326-0.823
			s-0.323-0.444-0.539-0.596c-0.199-0.152-0.431-0.272-0.693-0.355c-0.257-0.082-0.542-0.12-0.83-0.12
			c-0.377,0-0.703,0.051-0.992,0.152c-0.297,0.102-0.557,0.234-0.791,0.405c-0.226,0.184-0.425,0.387-0.587,0.646
			c-0.161,0.234-0.294,0.507-0.399,0.785c-0.11,0.299-0.171,0.596-0.23,0.919c-0.045,0.311-0.07,0.641-0.07,0.977
			c0,0.311,0.025,0.614,0.07,0.925c0.06,0.305,0.12,0.59,0.23,0.868c0.105,0.279,0.238,0.539,0.399,0.767
			c0.162,0.241,0.361,0.438,0.587,0.603c0.234,0.184,0.494,0.316,0.791,0.405c0.289,0.102,0.615,0.152,0.992,0.152
			c0.371,0,0.726-0.051,1.043-0.152c0.313-0.095,0.573-0.247,0.811-0.443c0.234-0.203,0.418-0.45,0.564-0.748
			c0.146-0.298,0.225-0.652,0.263-1.039h-2.5v-1.99h4.746v6.242h-1.565L163.509,54.194z"/>
		<path fill="#FFFFFF" d="M173.708,44.061h3.432l2.601,7.75h0.016l2.466-7.75h3.428v11.286h-2.335v-7.991h-0.044l-2.69,7.991h-1.787
			l-2.728-7.928h-0.025v7.928h-2.332V44.061z"/>
		<path fill="#FFFFFF" d="M192.138,44.061h2.637l4.201,11.286h-2.607l-0.85-2.522h-4.242l-0.881,2.522h-2.561L192.138,44.061z
			 M191.926,50.988h2.94l-1.436-4.145h-0.019L191.926,50.988z"/>
		<path fill="#FFFFFF" d="M209.361,54.194c-0.222,0.272-0.443,0.501-0.703,0.672c-0.241,0.184-0.501,0.323-0.772,0.418
			c-0.264,0.114-0.533,0.19-0.818,0.229c-0.285,0.044-0.555,0.075-0.826,0.075c-0.577,0-1.122-0.075-1.619-0.215
			c-0.501-0.133-0.957-0.33-1.369-0.577c-0.412-0.253-0.779-0.551-1.103-0.899c-0.311-0.361-0.58-0.754-0.805-1.179
			c-0.212-0.431-0.377-0.899-0.488-1.394c-0.107-0.508-0.168-1.027-0.168-1.565c0-0.558,0.061-1.097,0.168-1.61
			c0.111-0.507,0.276-0.994,0.488-1.426c0.225-0.443,0.494-0.842,0.805-1.21c0.323-0.361,0.69-0.672,1.103-0.925
			c0.412-0.254,0.868-0.456,1.362-0.583c0.501-0.152,1.046-0.216,1.626-0.216c0.387,0,0.767,0.038,1.127,0.121
			c0.384,0.075,0.732,0.189,1.071,0.348c0.349,0.152,0.656,0.336,0.941,0.57c0.304,0.216,0.554,0.476,0.786,0.773
			c0.218,0.298,0.405,0.627,0.551,0.988c0.152,0.361,0.24,0.748,0.279,1.179h-2.383c-0.058-0.311-0.162-0.589-0.308-0.823
			c-0.149-0.234-0.329-0.444-0.545-0.596c-0.196-0.152-0.435-0.272-0.694-0.355c-0.256-0.082-0.535-0.12-0.826-0.12
			c-0.374,0-0.697,0.051-0.998,0.146c-0.299,0.108-0.559,0.241-0.786,0.412c-0.229,0.184-0.418,0.387-0.586,0.646
			c-0.168,0.234-0.302,0.507-0.402,0.785c-0.099,0.299-0.181,0.596-0.229,0.919c-0.048,0.311-0.076,0.641-0.076,0.977
			c0,0.311,0.028,0.614,0.076,0.925c0.048,0.305,0.13,0.59,0.229,0.868c0.101,0.279,0.234,0.539,0.402,0.767
			c0.168,0.241,0.357,0.438,0.586,0.603c0.228,0.184,0.487,0.316,0.786,0.405c0.301,0.102,0.624,0.152,0.998,0.152
			c0.364,0,0.719-0.051,1.039-0.152c0.301-0.095,0.583-0.247,0.82-0.443c0.222-0.203,0.408-0.45,0.558-0.761
			c0.146-0.285,0.219-0.64,0.26-1.026h-2.487v-1.99h4.74v6.242h-1.581L209.361,54.194z"/>
		<path fill="#FFFFFF" d="M217.739,44.061h2.626l4.211,11.286h-2.614l-0.846-2.522h-4.239l-0.874,2.522h-2.57L217.739,44.061z
			 M217.53,50.988h2.934l-1.441-4.145h-0.016L217.53,50.988z"/>
		<path fill="#FFFFFF" d="M231.987,46.222h-5.316v-2.161h8.542v1.863l-6.008,7.3h5.963v2.123h-9.28v-1.8L231.987,46.222z"/>
		<path fill="#FFFFFF" d="M240.304,44.061v11.286h-2.401V44.061H240.304z"/>
		<path fill="#FFFFFF" d="M243.694,44.061h2.437l4.769,7.566h0.02v-7.566h2.338v11.286h-2.452l-4.743-7.554h-0.013v7.554h-2.354
			V44.061z"/>
		<path fill="#FFFFFF" d="M264.834,44.061v2.034h-5.919v2.472h5.498v1.996h-5.498v2.781h5.951v2.003h-8.378V44.061H264.834z"/>
	</g>
</g>
</svg>
